P2
6 6 255
255 255 255 255 255 101
255 100 100 100 255 108
255 100 255 100 255 107
255 100 100 100 255 106
255 255 255 255 255 105 
001 002 003 004 005 106